# xmcd
#
# Track frame offsets:
#	150
#	12511
#	29015
#	43803
#	60771
#	73631
#	94248
#	110107
#	132366
#	153005
#	164730
#
# Disc length: 2445 seconds
#
# Revision: 2
# Processed by: cddbd v1.5.2PL0 Copyright (c) Steve Scherf et al.
# Submitted via: EZCDAudioConverter 5.1.0.1
#
DISCID=97098b0b
DTITLE=Веселые ребята - 13 лет спустя
DYEAR=2002
DGENRE=Disco
TTITLE0=Любовь - огромная страна
TTITLE1=Школьная пора
TTITLE2=Мамина пластинка
TTITLE3=Баня
TTITLE4=Алешкина любовь
TTITLE5=Я к тебе не подойду
TTITLE6=Напиши мне письмо
TTITLE7=Когда молчим вдвоем
TTITLE8=Если б не суббота
TTITLE9=Люди встречаются
TTITLE10=Бродячие артисты
EXTD=
EXTT0=
EXTT1=
EXTT2=
EXTT3=
EXTT4=
EXTT5=
EXTT6=
EXTT7=
EXTT8=
EXTT9=
EXTT10=
PLAYORDER=
